<svg xmlns="http://www.w3.org/2000/svg" xmlns:xlink="http://www.w3.org/1999/xlink" width="1000" height="1000" viewBox="0 0 1000 1000" fill="none">
<path d="M136.672 668.352C136.672 684.385 136.672 700.476 136.672 716.479C136.672 722.816 137.459 729.066 137.838 735.344C137.833 736.069 137.893 736.787 138.017 737.503C138.141 738.218 138.327 738.913 138.576 739.594C138.825 740.274 139.132 740.928 139.498 741.553C139.864 742.178 140.282 742.765 140.753 743.317C144.747 747.639 143.96 753.363 144.135 758.532C144.543 771.323 144.485 784.114 144.135 796.905C144.36 808.435 145.555 819.862 147.721 831.19C148.712 837.907 147.43 844.419 146.992 850.931C146.234 862.262 146.613 873.593 146.234 884.895C146.03 891.67 144.747 898.416 146.234 905.162C146.382 906.438 146.625 907.694 146.963 908.929C152.532 922.042 149.879 933.285 139.004 942.484C126.789 952.822 109.85 949.464 100.871 936.205C95.0403 927.912 97.1102 918.829 95.1861 910.185C90.2299 888.137 92.7955 865.708 92.0083 843.455C92.0623 842.127 92.0174 840.801 91.8735 839.478C91.7297 838.155 91.4886 836.85 91.1501 835.562C90.8116 834.274 90.3796 833.021 89.8541 831.797C89.3285 830.577 88.7152 829.4 88.0142 828.27C82.6791 820.677 84.0785 811.711 82.3876 803.418C78.8016 785.896 81.8628 767.439 77.1399 750.559C72.7085 734.731 74.2245 719.283 73.758 703.834C72.4461 660.613 73.1749 617.363 72.5044 574.113C72.2712 559.511 72.1837 544.676 72.0088 529.928C71.8339 514.392 74.312 499.031 75.4198 483.582C76.1486 473.741 78.6559 464.133 78.685 454.204C78.6643 453.517 78.6916 452.834 78.767 452.153C78.8425 451.47 78.9653 450.796 79.1354 450.133C79.3056 449.47 79.5214 448.818 79.7829 448.185C80.0444 447.551 80.349 446.941 80.6966 446.348C81.1698 445.591 81.5881 444.809 81.9515 443.994C82.3149 443.179 82.6199 442.344 82.8664 441.485C83.113 440.63 83.2987 439.76 83.4235 438.878C83.5484 437.993 83.6113 437.105 83.612 436.214C83.6319 433.863 83.915 431.542 84.4613 429.255C85.0076 426.968 85.8032 424.769 86.8481 422.664C89.0102 417.609 90.6525 412.393 91.7751 407.011C94.6905 396.235 97.9265 385.459 100.521 374.654C103.116 363.848 108.538 355.087 111.804 344.983C112.449 342.668 113.24 340.405 114.18 338.193C115.119 335.982 116.197 333.841 117.416 331.771C118.634 329.7 119.981 327.718 121.457 325.823C122.933 323.929 124.526 322.139 126.235 320.452C127.725 318.771 129.009 316.944 130.086 314.973C131.164 313.001 132.008 310.934 132.62 308.771C135.302 301.616 140.258 296.272 144.048 290.051C148.676 282.831 152.806 275.335 156.438 267.565C156.675 266.877 156.965 266.212 157.308 265.571C157.651 264.93 158.043 264.32 158.483 263.742C158.924 263.164 159.409 262.625 159.936 262.125C160.463 261.625 161.027 261.17 161.628 260.76C162.939 259.972 164.543 258.512 164.718 257.227C165.388 250.802 168.829 245.341 171.394 239.705C173.96 234.068 174.893 226.855 181.015 222.971C181.452 222.635 181.86 222.267 182.24 221.868C182.621 221.468 182.968 221.042 183.282 220.588C183.596 220.135 183.873 219.66 184.114 219.163C184.355 218.667 184.556 218.155 184.717 217.627C185.784 214.725 186.999 211.886 188.362 209.111C189.724 206.336 191.227 203.64 192.871 201.022C194.514 198.404 196.289 195.879 198.196 193.446C200.103 191.014 202.131 188.688 204.28 186.467C206.201 184.285 207.698 181.841 208.769 179.137C209.211 177.968 209.73 176.835 210.326 175.737C210.922 174.64 211.59 173.587 212.329 172.58C213.068 171.574 213.872 170.621 214.74 169.724C215.608 168.827 216.534 167.993 217.515 167.222C222.909 163.63 224.367 156.387 229.381 152.62C240.226 144.677 246.553 132.178 258.272 125.081C261.188 123.358 261.742 119.241 264.686 117.313C267.983 115.204 271.403 113.319 274.945 111.657C278.488 109.995 282.124 108.571 285.852 107.384C289.63 106.076 293.177 104.305 296.493 102.069C301.325 98.9655 306.417 96.3763 311.77 94.3011C319.641 91.3808 328.3 89.3949 334.597 82.9994C335.151 82.4445 335.792 81.6268 336.492 81.5684C343.46 80.7216 349.291 76.6623 355.85 74.5598C362.905 72.2819 370.981 71.435 376.754 65.4483C379.669 62.5279 384.683 63.6669 387.978 61.7687C398.269 55.928 409.435 57.3589 420.397 56.8625C421.318 56.872 422.236 56.8168 423.149 56.6969C424.061 56.577 424.962 56.3935 425.851 56.1465C426.741 55.8995 427.606 55.5914 428.449 55.2222C429.292 54.853 430.108 54.4263 430.892 53.9422C434.449 51.6643 439.055 52.2192 443.166 52.19C472.757 51.9855 502.348 52.0147 531.939 52.0147C532.907 51.979 533.872 52.0082 534.837 52.1022C535.802 52.1962 536.755 52.3542 537.7 52.5761C538.642 52.7981 539.566 53.0822 540.47 53.4282C541.376 53.7742 542.254 54.1791 543.105 54.643C544.461 55.3275 545.878 55.8449 547.356 56.1952C548.834 56.5456 550.332 56.7193 551.851 56.7165L570.714 57.651C571.276 57.6171 571.839 57.6394 572.399 57.7181C572.959 57.7967 573.507 57.93 574.04 58.1181C574.574 58.3062 575.081 58.5452 575.568 58.8353C576.055 59.1253 576.507 59.4606 576.924 59.8412C577.329 60.184 577.763 60.4907 578.221 60.7614C578.679 61.0321 579.154 61.2632 579.652 61.4544C580.148 61.6458 580.655 61.7947 581.177 61.9014C581.699 62.008 582.224 62.0708 582.754 62.0899C584.195 62.1944 585.617 62.4098 587.022 62.7362C588.428 63.0625 589.801 63.4958 591.139 64.036C592.477 64.5763 593.766 65.2169 595.005 65.9581C596.244 66.6993 597.416 67.532 598.526 68.4563C601.267 70.9385 605.961 69.9456 609.751 70.2961C610.835 70.2685 611.917 70.3098 612.998 70.4201C614.08 70.5304 615.147 70.7087 616.205 70.955C617.264 71.2013 618.302 71.5137 619.319 71.8921C620.336 72.2705 621.325 72.712 622.287 73.2164C622.561 73.3989 622.861 73.4962 623.191 73.5084C633.773 74.1509 642.986 80.0499 653.423 81.218C654.035 81.218 654.939 81.218 655.26 81.5684C662.315 89.2197 672.752 88.7525 681.498 92.0524C683.86 92.9186 686.172 93.9019 688.434 95.0026C690.696 96.1035 692.897 97.3161 695.037 98.6401C697.177 99.9645 699.244 101.394 701.241 102.928C703.235 104.462 705.148 106.094 706.979 107.822C712.226 112.816 718.873 116.145 723.276 122.074C731.468 133.2 741.701 143.042 747.648 155.541C751.088 162.754 757.531 167.222 760.942 174.114C762.808 177.881 764.178 181.824 765.928 185.62C769.863 194.147 776.744 201.069 779.747 209.742C782.458 217.569 787.297 224.811 787.706 233.397C787.72 233.805 787.77 234.209 787.86 234.608C787.948 235.006 788.073 235.393 788.236 235.768C788.397 236.143 788.592 236.5 788.822 236.837C789.052 237.175 789.312 237.489 789.601 237.777C795.431 243.618 797.764 251.065 800.766 258.395C802.938 263.591 804.688 268.925 806.014 274.398C806.014 274.866 806.014 275.508 806.451 275.771C811.553 280.035 812.516 286.401 815.198 291.979C818.512 300.021 821.32 308.237 823.623 316.626C824.512 319.723 825.699 322.702 827.18 325.563C831.582 333.389 834.293 342.063 838.025 350.064C841.757 358.066 840.94 367.849 848.724 374.449C852.019 377.223 853.622 383.21 854.789 387.737C856.975 396.498 860.619 404.85 861.027 414.02C861.06 414.87 861.153 415.714 861.307 416.549C861.462 417.384 861.678 418.205 861.955 419.008C862.231 419.811 862.564 420.59 862.957 421.347C863.351 422.1 863.794 422.822 864.293 423.511C864.984 424.51 865.599 425.555 866.135 426.644C866.672 427.734 867.123 428.858 867.491 430.017C867.861 431.177 868.141 432.354 868.33 433.554C868.523 434.754 868.625 435.963 868.637 437.178C868.604 438.15 868.648 439.12 868.768 440.087C868.887 441.053 869.077 442.002 869.342 442.94C869.607 443.877 869.94 444.785 870.345 445.67C870.75 446.555 871.222 447.405 871.756 448.217C872.365 449.271 872.814 450.387 873.103 451.569C873.392 452.752 873.505 453.949 873.447 455.167C873.709 461.972 874.117 468.747 874.467 475.61C874.4 476.436 874.517 477.233 874.817 478.004C879.044 485.656 878.957 494.095 879.54 502.477C879.826 504.241 880.359 505.926 881.144 507.529C883.709 514.45 887.208 521.05 887.382 528.76C887.397 529.615 887.476 530.462 887.624 531.303C887.77 532.147 887.983 532.971 888.26 533.78C888.537 534.589 888.878 535.369 889.277 536.125C889.677 536.878 890.135 537.597 890.648 538.28C891.105 538.955 891.449 539.685 891.68 540.467C891.91 541.25 892.012 542.05 891.989 542.865C892.193 548.706 892.572 554.546 892.718 560.387C892.589 563.772 892.796 567.136 893.341 570.48C893.887 573.823 894.758 577.077 895.954 580.245C899.161 587.634 897.528 595.898 897.79 603.783C897.752 605.316 897.822 606.841 897.997 608.362C898.175 609.884 898.455 611.388 898.843 612.868C899.231 614.349 899.72 615.798 900.309 617.211C900.901 618.624 901.586 619.988 902.367 621.305C902.895 622.219 903.356 623.168 903.752 624.147C904.149 625.125 904.475 626.127 904.735 627.152C904.994 628.177 905.181 629.216 905.297 630.265C905.414 631.313 905.458 632.367 905.429 633.425C905.633 643.909 905.574 654.364 909.977 664.38C910.554 666.241 910.945 668.136 911.152 670.072C911.359 672.008 911.373 673.947 911.201 675.886C911.184 690.281 912.592 704.532 915.428 718.64C919.046 737.695 920.988 756.923 921.259 776.317C922.542 824.678 923.116 873.059 922.979 921.458C922.971 922.313 922.938 923.169 922.886 924.025C922.831 924.88 922.758 925.736 922.661 926.586C922.565 927.436 922.446 928.285 922.306 929.132C922.166 929.976 922.006 930.817 921.822 931.655C921.638 932.494 921.437 933.323 921.213 934.149C920.988 934.976 920.74 935.796 920.475 936.611C920.21 937.426 919.921 938.232 919.612 939.032C919.306 939.832 918.976 940.624 918.63 941.406C918.283 942.189 917.915 942.963 917.528 943.725C917.14 944.49 916.732 945.244 916.306 945.986C915.88 946.73 915.437 947.46 914.974 948.182C914.51 948.903 914.029 949.61 913.531 950.308C913.032 951.003 912.516 951.686 911.982 952.355C911.449 953.024 910.901 953.681 910.332 954.323C909.764 954.963 909.181 955.591 908.583 956.204C907.985 956.814 907.37 957.41 906.741 957.991C898.373 966.372 881.202 967.57 872.485 959.772C867.704 955.45 861.96 951.479 858.958 945.521C856.625 940.907 857.383 935.388 857.267 930.277C857.062 920.903 857.762 911.499 857.733 902.125C857.5 852.07 857.062 802.016 856.975 751.961C856.975 745.069 853.214 739.375 852.602 732.716C851.378 719.37 848.666 706.229 848.258 692.824C848.258 689.583 846.013 686.984 845.634 684.063C843.885 669.841 838.987 656.057 839.424 641.514C839.492 640.261 839.477 639.008 839.387 637.756C839.296 636.503 839.127 635.262 838.882 634.029C838.634 632.8 838.314 631.588 837.917 630.396C837.521 629.208 837.051 628.045 836.509 626.912C835.795 625.189 835.273 623.408 834.949 621.571C834.626 619.734 834.503 617.886 834.585 616.019C834.352 606.003 835.78 595.431 831.67 586.29C826.451 574.901 827.384 562.928 825.839 551.246C825.748 549.38 825.431 547.555 824.883 545.771C824.334 543.986 823.573 542.296 822.603 540.704C822.299 540.225 822.037 539.726 821.816 539.203C821.591 538.68 821.413 538.146 821.276 537.594C821.139 537.042 821.049 536.484 821.002 535.917C820.956 535.354 820.956 534.787 820.999 534.221C821.095 532.323 821.087 530.424 820.97 528.526C820.853 526.631 820.629 524.744 820.3 522.872C819.97 521 819.539 519.155 819.002 517.33C818.466 515.507 817.83 513.72 817.093 511.968C816.507 510.283 816.174 508.551 816.101 506.77C815.081 499.469 815.11 492.168 810.97 485.364C807.326 479.523 808.055 471.93 807.472 464.921C806.947 459.46 806.656 454.087 803.332 449.268C802.997 448.62 802.708 447.951 802.469 447.262C802.227 446.573 802.038 445.869 801.901 445.153C801.764 444.435 801.676 443.711 801.644 442.984C801.609 442.254 801.627 441.526 801.699 440.799C801.752 439.748 801.723 438.697 801.612 437.648C801.501 436.6 801.312 435.569 801.043 434.55C800.772 433.53 800.428 432.54 800.006 431.577C799.583 430.61 799.087 429.684 798.522 428.797C797.976 427.894 797.56 426.933 797.271 425.917C796.982 424.901 796.837 423.864 796.831 422.81C796.597 420.24 796.831 416.969 795.548 415.275C790.563 408.822 788.434 401.083 785.14 393.928C781.852 387.097 779.336 379.989 777.589 372.609C777.385 371.675 777.589 370.331 777.006 369.689C771.729 364.783 770.534 357.657 767.036 351.787C766.627 351.086 765.84 350.415 765.84 349.743C765.84 340.982 760.009 334.119 759.018 325.767C758.998 325.11 758.919 324.461 758.782 323.817C758.645 323.175 758.45 322.549 758.202 321.941C757.954 321.333 757.654 320.751 757.301 320.197C756.948 319.643 756.549 319.124 756.103 318.641C750.272 313.618 749.339 306.201 746.949 299.805C744.182 293.601 742.004 287.196 740.418 280.589C740.325 279.928 740.071 279.334 739.66 278.808C730.098 267.419 726.541 253.284 722.022 239.617C721.454 238.101 720.704 236.68 719.777 235.353C715.317 228.52 710.506 221.861 708.291 213.801C707.757 212.272 707.06 210.823 706.2 209.452C705.34 208.081 704.334 206.825 703.189 205.683C694.996 196.455 689.341 185.649 682.781 175.37C680.329 172.17 677.472 169.386 674.21 167.018C671.108 164.381 668.3 161.461 665.784 158.257C664.793 157.001 663.831 155.336 662.49 154.811C656.834 153.029 652.053 148.707 645.989 148.327C638.875 147.831 633.103 143.246 626.223 142.487C625.059 142.387 623.905 142.208 622.765 141.95C621.625 141.691 620.508 141.356 619.415 140.944C618.322 140.531 617.261 140.046 616.232 139.488C615.203 138.93 614.22 138.304 613.278 137.61C609.343 134.543 603.949 135.39 599.43 133.93C588.439 130.367 576.749 130.017 565.933 124.935C559.694 122.015 552.289 119.095 544.475 120.117C543.341 120.196 542.219 120.121 541.105 119.893C539.992 119.665 538.927 119.292 537.916 118.774C528.849 114.539 518.995 115.123 509.491 114.685C490.949 113.867 472.32 114.685 453.749 115.415C452.218 115.357 450.69 115.389 449.166 115.512C447.641 115.635 446.131 115.848 444.629 116.15C443.128 116.453 441.653 116.843 440.198 117.321C438.743 117.799 437.323 118.361 435.936 119.007C434.513 119.591 433.044 120.015 431.531 120.281C430.018 120.547 428.493 120.648 426.956 120.584C418.939 121.3 411 122.527 403.138 124.264C402.525 124.264 401.651 124.264 401.272 124.643C397.074 129.053 391.039 130.104 385.82 131.623C376.797 134.435 368.206 138.231 360.048 143.012C353.722 146.575 346.754 147.919 340.311 150.985C333.868 154.051 327.513 157.556 321.128 160.885C320.033 161.357 318.995 161.932 318.013 162.61C317.032 163.289 316.127 164.057 315.297 164.915C315.153 165.156 314.983 165.376 314.786 165.576C314.589 165.775 314.372 165.949 314.133 166.096C313.895 166.244 313.642 166.361 313.376 166.447C313.109 166.534 312.836 166.588 312.557 166.609C305.589 166.609 301.537 171.252 297.776 176.158C294.015 181.064 287.28 183.955 283.607 189.183C276.552 198.966 266.348 206.004 261.683 217.715C261.232 218.792 260.704 219.83 260.102 220.83C259.5 221.831 258.828 222.782 258.087 223.684C257.347 224.586 256.545 225.431 255.682 226.216C254.819 227.002 253.905 227.721 252.937 228.374C247.806 232.053 246.64 238.566 243.112 243.414C238.769 249.254 238.506 257.636 231.947 262.25C231.505 262.722 231.145 263.249 230.867 263.832C230.588 264.415 230.404 265.026 230.314 265.667C227.661 275.8 221.568 284.59 218.507 294.49C218.384 294.792 218.215 295.066 218 295.311C217.785 295.556 217.536 295.76 217.253 295.921C210.723 299.688 208.274 306.376 205.125 312.713C203.525 315.804 201.66 318.724 199.527 321.474C194.752 328.524 190.68 335.962 187.312 343.786C186.882 344.884 186.386 345.95 185.826 346.986C185.265 348.023 184.643 349.019 183.96 349.98C183.277 350.94 182.538 351.854 181.743 352.725C180.947 353.592 180.103 354.41 179.207 355.175C178.87 355.4 178.545 355.639 178.234 355.899C177.924 356.159 177.628 356.436 177.348 356.729C177.068 357.023 176.805 357.33 176.559 357.651C176.313 357.975 176.086 358.308 175.877 358.656C175.668 359.003 175.48 359.363 175.311 359.731C175.142 360.099 174.994 360.475 174.867 360.861C174.74 361.246 174.635 361.638 174.551 362.035C174.468 362.432 174.407 362.832 174.368 363.235C174.314 363.924 174.205 364.605 174.042 365.276C173.879 365.948 173.664 366.602 173.397 367.242C173.129 367.878 172.813 368.492 172.448 369.079C172.083 369.666 171.673 370.218 171.219 370.74C170.476 371.602 169.932 372.577 169.587 373.661C166.38 384.612 161.336 394.891 157.75 405.58C154.164 416.268 150.345 426.957 150.287 438.434C150.308 439.319 150.261 440.198 150.147 441.077C150.033 441.956 149.851 442.82 149.604 443.67C149.357 444.52 149.046 445.343 148.672 446.146C148.297 446.949 147.864 447.717 147.371 448.45C144.194 453.181 146.059 459.227 144.456 464.512C144.332 465.786 144.051 467.021 143.611 468.221C138.654 475.902 137.78 484.487 137.78 493.336C138.028 497.095 138.03 500.853 137.786 504.612C137.542 508.37 137.054 512.099 136.322 515.793C132.153 531.388 135.418 546.837 135.535 562.314C135.535 567.337 135.535 572.36 135.535 577.383C135.856 607.784 137.08 638.068 136.672 668.352Z" stroke="rgba(0, 0, 0, 1)" stroke-width="32"      fill="#000000" >
</path>
<path d="M522.903 497.147C522.806 487.009 523.175 476.893 524.011 466.799C524.244 461.829 527.568 458.722 529.842 455.092C538.005 441.128 550.716 438.741 564.127 440.507C569.287 441.161 574.972 441.717 579.199 446.72C579.458 447.017 579.711 447.32 579.957 447.629C580.204 447.939 580.444 448.256 580.678 448.581C580.909 448.904 581.134 449.233 581.354 449.568C581.572 449.902 581.782 450.242 581.987 450.589C582.189 450.938 582.384 451.291 582.573 451.648C582.761 452.004 582.942 452.366 583.115 452.734C583.288 453.1 583.452 453.472 583.607 453.849C583.765 454.226 583.914 454.607 584.054 454.99C584.193 455.374 584.325 455.762 584.447 456.155C584.572 456.545 584.687 456.94 584.794 457.339C584.899 457.735 584.996 458.135 585.086 458.539C585.175 458.942 585.255 459.348 585.325 459.755C585.397 460.163 585.46 460.572 585.514 460.982C585.567 461.394 585.611 461.806 585.648 462.218C585.683 462.632 585.71 463.046 585.73 463.46C585.747 463.877 585.756 464.292 585.756 464.706C585.756 465.12 585.747 465.536 585.73 465.952C585.71 466.366 585.683 466.781 585.648 467.195C585.611 467.607 585.567 468.019 585.514 468.431C585.46 468.841 585.397 469.25 585.325 469.657C585.255 470.065 585.175 470.471 585.086 470.874C584.996 471.277 584.899 471.677 584.794 472.074C584.687 472.471 584.572 472.866 584.447 473.258C584.325 473.65 584.193 474.038 584.054 474.422C583.914 474.806 583.765 475.186 583.607 475.564C583.452 475.938 583.288 476.31 583.115 476.678C582.942 477.045 582.761 477.407 582.573 477.764C582.384 478.122 582.189 478.475 581.987 478.824C581.782 479.171 581.572 479.511 581.354 479.844C581.134 480.18 580.909 480.509 580.678 480.832C580.444 481.157 580.204 481.474 579.957 481.783C579.711 482.093 579.458 482.396 579.199 482.692C578.941 482.976 578.708 483.283 578.5 483.614C578.292 483.946 578.113 484.297 577.963 484.668C577.814 485.036 577.696 485.418 577.611 485.812C577.523 486.205 577.47 486.603 577.45 487.009C576.517 500.09 575.643 513.367 580.803 525.924C581.205 526.919 581.49 527.952 581.657 529.025C581.826 530.1 581.872 531.181 581.794 532.269C580.861 542.505 588.033 549.83 589.258 559.281C590.365 567.849 591.94 576.384 590.336 585.083C590.336 585.802 590.336 586.751 590.016 587.208C586.348 592.157 582.461 596.877 578.354 601.369C577.917 601.769 577.463 602.146 576.992 602.5C576.524 602.853 576.041 603.181 575.544 603.484C575.046 603.785 574.537 604.059 574.016 604.305C573.495 604.551 572.964 604.769 572.424 604.959C571.886 605.151 571.34 605.312 570.786 605.443C570.234 605.574 569.677 605.675 569.115 605.747C568.553 605.819 567.99 605.86 567.424 605.872C566.859 605.882 566.294 605.864 565.73 605.816C564.69 605.705 563.663 605.507 562.649 605.224C561.634 604.941 560.644 604.574 559.678 604.125C558.712 603.676 557.781 603.149 556.885 602.546C555.989 601.94 555.138 601.264 554.331 600.518C545.993 593.814 539.375 585.116 537.568 573.179C536.355 568.296 534.596 563.674 532.291 559.314C531.315 557.127 530.533 554.856 529.944 552.501C529.355 550.149 528.971 547.754 528.792 545.317C528.752 543.479 528.411 541.713 527.772 540.019C522.145 526.775 523.078 512.713 522.903 497.147Z" stroke="rgba(0, 0, 0, 1)" stroke-width="32"      fill="#000000" >
</path>
<path d="M338.126 533.806C338.126 529.456 337.922 525.074 338.126 520.725C338.122 520.189 338.133 519.652 338.159 519.116C338.185 518.58 338.225 518.046 338.28 517.514C338.335 516.979 338.405 516.449 338.489 515.921C338.573 515.393 338.671 514.869 338.784 514.348C338.897 513.825 339.024 513.307 339.166 512.795C339.307 512.282 339.462 511.776 339.631 511.274C339.8 510.773 339.983 510.277 340.179 509.786C340.376 509.298 340.585 508.816 340.808 508.341C341.031 507.865 341.266 507.399 341.514 506.941C341.763 506.481 342.023 506.031 342.296 505.59C342.57 505.15 342.854 504.72 343.151 504.299C343.448 503.878 343.755 503.468 344.075 503.069C344.394 502.668 344.724 502.28 345.064 501.905C345.404 501.528 345.755 501.163 346.115 500.809C346.476 500.456 346.846 500.116 347.225 499.789C347.604 499.462 347.992 499.148 348.388 498.847C352.615 495.577 355.297 490.05 360.341 487.5C370.603 482.3 388.008 483.248 392.877 499.534C394.888 506.271 395.792 512.222 393.401 518.894C392.964 520.304 392.602 521.74 392.314 523.201C392.026 524.659 391.814 526.132 391.678 527.619C391.544 529.106 391.487 530.596 391.506 532.089C391.526 533.582 391.623 535.07 391.798 536.553C391.831 537.303 391.906 538.049 392.022 538.79C392.137 539.529 392.293 540.257 392.492 540.974C392.692 541.692 392.93 542.392 393.206 543.077C393.484 543.762 393.799 544.423 394.151 545.062C394.502 545.701 394.888 546.312 395.308 546.896C395.728 547.481 396.18 548.034 396.664 548.554C397.146 549.076 397.655 549.561 398.191 550.01C398.73 550.459 399.29 550.868 399.873 551.236C406.521 555.422 409.611 562.551 414.013 568.601C414.217 568.891 414.377 569.209 414.491 569.556C414.606 569.902 414.67 570.26 414.684 570.628C415.033 583.251 416.52 595.907 410.631 607.778C410.266 608.517 409.874 609.239 409.456 609.943C409.039 610.647 408.596 611.332 408.13 611.997C407.663 612.662 407.174 613.304 406.66 613.923C406.147 614.544 405.614 615.141 405.06 615.711C404.504 616.283 403.929 616.829 403.334 617.35C402.739 617.869 402.127 618.36 401.497 618.825C400.866 619.289 400.22 619.724 399.559 620.13C398.898 620.537 398.223 620.913 397.535 621.258C396.846 621.602 396.146 621.916 395.436 622.2C394.725 622.481 394.005 622.729 393.276 622.945C392.547 623.163 391.812 623.347 391.069 623.498C390.327 623.648 389.58 623.765 388.83 623.848C388.08 623.931 387.328 623.98 386.573 623.995C385.821 624.01 385.068 623.991 384.314 623.936C383.562 623.884 382.813 623.798 382.066 623.678C381.32 623.556 380.579 623.401 379.845 623.213C379.13 623.065 378.431 622.85 377.749 622.569C377.066 622.288 376.41 621.943 375.778 621.536C375.148 621.13 374.552 620.667 373.991 620.146C373.431 619.627 372.914 619.058 372.44 618.439C368.912 613.37 362.732 611.898 359.554 606.306C358.767 604.966 357.367 603.821 357.105 602.382C355.735 595.286 351.624 589.465 350.137 582.336C348.65 575.207 344.306 568.83 341.595 561.864C340.924 559.985 340.343 558.071 339.852 556.122C339.361 554.175 338.962 552.204 338.656 550.209C338.349 548.214 338.137 546.206 338.02 544.185C337.902 542.167 337.879 540.146 337.951 538.122C337.951 536.684 337.951 535.212 337.951 533.773L338.126 533.806Z" stroke="rgba(0, 0, 0, 1)" stroke-width="32"      fill="#000000" >
</path>
</svg>
